<svg width="5" height="5" viewBox="0 0 5 5" fill="none" xmlns="http://www.w3.org/2000/svg">
<path d="M2.34065 0.0990532C2.40584 -0.033018 2.59416 -0.0330176 2.65935 0.0990536L3.29423 1.38547C3.32011 1.43791 3.37014 1.47426 3.42802 1.48267L4.84766 1.68896C4.99341 1.71014 5.05161 1.88925 4.94614 1.99205L3.91888 2.99339C3.877 3.03421 3.85789 3.09303 3.86778 3.15067L4.11028 4.56457C4.13518 4.70973 3.98282 4.82043 3.85245 4.7519L2.58269 4.08434C2.53092 4.05712 2.46908 4.05712 2.41731 4.08434L1.14755 4.7519C1.01718 4.82043 0.864822 4.70973 0.889719 4.56457L1.13222 3.15067C1.14211 3.09303 1.123 3.03421 1.08112 2.99339L0.053856 1.99205C-0.0516092 1.88925 0.00658811 1.71014 0.152337 1.68896L1.57198 1.48267C1.62986 1.47426 1.67989 1.43791 1.70577 1.38547L2.34065 0.0990532Z" fill="black"/>
</svg>
